<svg xmlns="http://www.w3.org/2000/svg" height="32" viewBox="0 96 960 960" width="32">
<path stroke="rgb(27 161 226)" stroke-width="30" fill="rgb(27 161 226)" d="M484 809q16 0 27-11t11-27q0-16-11-27t-27-11q-16 0-27 11t-11 27q0 16 11 27t27 11Zm-35-146h59q0-26 6.5-47.5T555 566q31-26 44-51t13-55q0-53-34.5-85T486 343q-49 0-86.5 24.5T345 435l53 20q11-28 33-43.5t52-15.5q34 0 55 18.5t21 47.5q0 22-13 41.5T508 544q-30 26-44.5 51.5T449 663Zm31 313q-82 0-155-31.5t-127.5-86Q143 804 111.5 731T80 576q0-83 31.5-156t86-127Q252 239 325 207.5T480 176q83 0 156 31.5T763 293q54 54 85.5 127T880 576q0 82-31.5 155T763 858.5q-54 54.5-127 86T480 976Zm0-60q142 0 241-99.5T820 576q0-142-99-241t-241-99q-141 0-240.5 99T140 576q0 141 99.5 240.5T480 916Zm0-340Z"/>
<path stroke="rgb(27 161 226)" stroke-width="30" fill="#FFF " d="M482.441 811.896q17.328 0 29.443-12.171 12.115-12.171 12.115-29.5 0-17.071-12.043-29.315-12.043-12.243-29.371-12.243t-29.571 12.171q-12.244 12.171-12.244 29.243 0 17.328 12.171 29.572 12.171 12.243 29.5 12.243Zm-35.825-148.768h65.127q.513-29.252 7.32-49.972 6.808-20.72 40.782-51.309 28.692-25.052 42.449-49.561 13.756-24.508 13.756-55.965 0-54.418-37.283-85.599-37.283-31.182-93.377-31.182-52.928 0-89.517 26.756-36.59 26.756-52.077 68.73L402.154 458q7.692-23.539 26.949-41.615 19.256-18.077 53.717-18.077 33.949 0 53.18 18.667 19.231 18.666 19.231 44.359 0 21.205-12.835 39.205t-33.934 36.487q-36.615 32.179-49.23 56.436-12.616 24.257-12.616 69.666Zm33.145 314.204q-82.76 0-155.84-31.773t-127.38-86.051q-54.3-54.277-86.086-127.414-31.787-73.136-31.787-156.027 0-83.316 31.832-156.624 31.832-73.308 86.334-127.845 54.503-54.537 127.364-85.733 72.862-31.197 155.44-31.197 83.351 0 156.86 31.183 73.509 31.183 127.905 85.711 54.396 54.527 85.662 127.92 31.267 73.393 31.267 156.84 0 83.037-31.183 155.669t-85.697 127.141q-54.514 54.509-127.889 86.354-73.375 31.846-156.802 31.846Z"/>
</svg>