<svg xmlns="http://www.w3.org/2000/svg" height="32" viewBox="0 96 960 960" width="40">
<path stroke="rgb(27 161 226)" stroke-width="30" fill="rgb(27 161 226)" d="M226.642 792.847q59.282-41.821 121.222-64.282 61.94-22.462 132.166-22.462t132.008 22.462q61.782 22.461 122.397 64.282 40.847-50.359 60.078-103.292Q813.744 636.623 813.744 576q0-139.692-97.026-236.718Q619.692 242.256 480 242.256t-236.718 97.026Q146.256 436.308 146.256 576q0 60.623 19.437 113.555 19.436 52.933 60.949 103.292Zm253.271-175.72q-60.938 0-102.682-41.83-41.743-41.831-41.743-102.769t41.831-102.681q41.83-41.743 102.768-41.743t102.682 41.83q41.743 41.83 41.743 102.769 0 60.938-41.831 102.681-41.83 41.743-102.768 41.743Zm.399 360.205q-82.722 0-155.696-31.533-72.974-31.532-127.692-86.576-54.717-55.045-86.486-127.773-31.77-72.728-31.77-155.999 0-81.938 31.91-154.726 31.909-72.788 86.541-127.89 54.632-55.102 127.395-86.634 72.764-31.533 156.035-31.533 81.938 0 154.726 31.91 72.788 31.909 127.653 86.576 54.865 54.668 86.634 127.454 31.77 72.786 31.77 155.08 0 82.722-31.533 155.696-31.532 72.974-86.634 127.552-55.102 54.577-127.831 86.486-72.728 31.91-155.022 31.91ZM480 909.744q52.231 0 104.141-16.462 51.911-16.462 97.526-52.642-45.339-32.183-96.9-49.566Q533.205 773.691 480 773.691t-104.821 17.18q-51.616 17.18-95.923 49.972 44.692 35.715 96.603 52.308 51.91 16.593 104.141 16.593Zm.036-360.205q32.528 0 54.708-22.215 22.18-22.216 22.18-54.744 0-32.529-22.216-54.709-22.215-22.179-54.744-22.179-32.528 0-54.708 22.215t-22.18 54.744q0 32.529 22.216 54.708 22.215 22.18 54.744 22.18ZM480 472.615Zm0 368.769Z"/>
<path stroke="rgb(27 161 226)" stroke-width="30" fill="#FFF " d="M226.642 792.847q59.282-39.923 121.017-60.897 61.735-20.975 132.371-20.975 70.637 0 132.213 20.975 61.577 20.974 122.192 60.897 40.847-50.359 60.078-103.27 19.231-52.91 19.231-113.577 0-139.692-97.026-236.718Q619.692 242.256 480 242.256t-236.718 97.026Q146.256 436.308 146.256 576q0 60.667 19.437 113.577 19.436 52.911 60.949 103.27Zm253.288-175.72q-60.955 0-102.699-41.813-41.743-41.814-41.743-102.769 0-60.955 41.814-102.698 41.813-41.743 102.768-41.743t102.699 41.813q41.743 41.814 41.743 102.769 0 60.955-41.814 102.698-41.813 41.743-102.768 41.743Zm-.308 360.205q-81.887 0-155.438-31.673-73.551-31.673-127.969-86.577-54.419-54.904-85.983-127.682-31.564-72.778-31.564-155.9 0-82.866 31.91-155.69 31.909-72.823 86.541-127.45 54.632-54.627 127.445-86.159 72.814-31.533 155.936-31.533 82.866 0 155.61 31.93 72.744 31.929 127.075 86.296 54.331 54.368 86.239 127.186 31.908 72.818 31.908 155.743 0 82.899-31.533 155.663-31.532 72.763-86.205 127.395-54.673 54.632-127.67 86.541-72.997 31.91-156.302 31.91Z"/>
</svg>